# xmcd
#
# Track frame offsets:
#	150
#	16868
#	33561
#	50169
#	65019
#	80956
#	96548
#	112723
#	128132
#	143759
#	159404
#	175879
#	191416
#	206705
#	221714
#	236229
#
# Disc length: 3349 seconds
#
# Revision: 1
# Processed by: cddbd v1.5.2PL0 Copyright (c) Steve Scherf et al.
# Submitted via: EasyCDDAExtractor 16.0.9.1
#
DISCID=ee0d1310
DTITLE=Various Artist - Italian Dance Heroes Vol.1
DYEAR=2003
DGENRE=Dance
TTITLE0=DJ Reso - Volare
TTITLE1=DJ Phaser - Touch And Go
TTITLE2=Converse - Hero
TTITLE3=United Europe - Only You
TTITLE4=Smash Maker - La Cucaracha
TTITLE5=Swordfish - Why
TTITLE6=Manana - Everytime I Close My Eyes
TTITLE7=On Off - Read My Mind
TTITLE8=Nelly - You Are Always On My Mind
TTITLE9=Chronos - Emotion
TTITLE10=Gabriel La Rosso - Anywhere
TTITLE11=Angel-BLU - Come Back
TTITLE12=Mamamia - Shout Out
TTITLE13=Pete Swake - Outta Love
TTITLE14=Alex A. - Control Your Body
TTITLE15=KLD - Everybody In The House
EXTD=
EXTT0=
EXTT1=
EXTT2=
EXTT3=
EXTT4=
EXTT5=
EXTT6=
EXTT7=
EXTT8=
EXTT9=
EXTT10=
EXTT11=
EXTT12=
EXTT13=
EXTT14=
EXTT15=
PLAYORDER=
